<svg id="Capa_1" enable-background="new 0 0 512 512" height="512" viewBox="0 0 512 512" width="512" xmlns="http://www.w3.org/2000/svg"><g><circle  fill="#fff" cx="316" cy="211" r="10"/><circle fill="#fff" cx="196" cy="211" r="10"/><path fill="#fff" d="m0 166c0 5.522 4.478 10 10 10s10-4.478 10-10v-126c0-11.028 8.972-20 20-20h126c5.522 0 10-4.478 10-10s-4.478-10-10-10h-126c-22.056 0-40 17.944-40 40z"/><path fill="#fff" d="m502 176c5.522 0 10-4.478 10-10v-126c0-22.056-17.944-40-40-40h-126c-5.522 0-10 4.478-10 10s4.478 10 10 10h126c11.028 0 20 8.972 20 20v126c0 5.522 4.478 10 10 10z"/><path fill="#fff" d="m336 502c0 5.522 4.478 10 10 10h126c22.056 0 40-17.944 40-40v-126c0-5.522-4.478-10-10-10s-10 4.478-10 10v126c0 11.028-8.972 20-20 20h-126c-5.522 0-10 4.478-10 10z"/><path fill="#fff" d="m0 472c0 22.056 17.944 40 40 40h126c5.522 0 10-4.478 10-10s-4.478-10-10-10h-126c-11.028 0-20-8.972-20-20v-126c0-5.522-4.478-10-10-10s-10 4.478-10 10z"/><path fill="#fff" d="m10 266h86v20c0 84.865 66.417 154.498 150 159.678v56.322c0 5.522 4.478 10 10 10s10-4.478 10-10v-56.325c25.58-1.601 50.427-9.313 72.402-22.566 4.729-2.853 6.251-8.999 3.399-13.728-2.853-4.729-8.999-6.251-13.728-3.399-18.859 11.374-40.139 18.083-62.074 19.653v-70.129c22.9-2.267 44.156-12.302 60.682-28.825 3.905-3.905 3.905-10.236 0-14.143-3.904-3.903-10.234-3.905-14.143 0-12.739 12.738-28.991 20.634-46.539 22.819v-69.357h130v20c0 20.249-4.247 39.791-12.624 58.083-2.3 5.021-.093 10.957 4.928 13.256 5.02 2.298 10.955.094 13.256-4.928 9.583-20.924 14.441-43.267 14.441-66.411v-20h86c5.522 0 10-4.478 10-10s-4.478-10-10-10h-86v-20c0-84.211-65.606-154.388-150-159.665v-56.335c0-5.522-4.478-10-10-10s-10 4.478-10 10v56.335c-84.381 5.277-150 75.443-150 159.665v20h-86c-5.522 0-10 4.478-10 10s4.478 10 10 10zm236 69.358c-17.548-2.185-33.801-10.081-46.539-22.819-3.906-3.904-10.238-3.904-14.143 0-3.905 3.906-3.905 10.237 0 14.143 16.526 16.523 37.782 26.558 60.682 28.825v70.132c-72.547-5.145-130-65.805-130-139.639v-20h130zm20-89.358v-110.087c18.259 24.319 47.318 40.087 80 40.087h40.765c6.126 15.928 9.235 32.716 9.235 50v20zm111.215-90h-31.215c-40.581 0-74.177-30.379-79.3-69.585 46.085 3.528 87.433 29.673 110.515 69.585zm-131.915-69.585c-5.123 39.206-38.719 69.585-79.3 69.585h-31.216c23.08-39.91 64.43-66.057 110.516-69.585zm-129.3 139.585c0-17.283 3.109-34.07 9.235-50h40.765c32.682 0 61.741-15.768 80-40.087v110.087h-130z"/><circle cx="368.001" cy="386" r="10"/></g></svg>